<svg xmlns="http://www.w3.org/2000/svg" viewBox="0 0 987.87 222.25"><defs><style>.cls-1{fill:#8069af;}.cls-2{fill:#171425;}</style></defs><g id="Layer_2" data-name="Layer 2"><g id="Layer_1-2" data-name="Layer 1"><path class="cls-1" d="M268.13,12.16a12.11,12.11,0,0,1-.95,4.71v0l-.35.73-1.2,2.58L246.79,60.61l-9.43,20.21L227.94,101l-6.21,13.32a12.16,12.16,0,0,1-11,6.89h-40a12.17,12.17,0,0,1-11-17.44l1.29-2.77,9.42-20.2,1.29-2.77a12.17,12.17,0,0,0-11-17.44H65.23A12.16,12.16,0,0,1,54,43.72c.09-.21.18-.41.28-.61l1.26-2.7L65,20.2,70.82,7.71l.65-1.4A12.16,12.16,0,0,1,82.13,0H256A12.15,12.15,0,0,1,268.13,12.16Z"/><path class="cls-1" d="M215,173.79a12.14,12.14,0,0,1-1.2,5.28l-1.29,2.77L203.13,202l-6.21,13.32a12.17,12.17,0,0,1-11,6.89H12.16a12.16,12.16,0,0,1-11-17.43L2.49,202l28.27-60.61,9.42-20.2,6.21-13.32a12.15,12.15,0,0,1,11-6.89h40a12.16,12.16,0,0,1,11,17.43l-1.29,2.78-9.41,20.2-1.29,2.77a12.16,12.16,0,0,0,11,17.43h95.58A12.16,12.16,0,0,1,215,173.79Z"/><path class="cls-2" d="M389.18,73.92V93.76l-54.07,74.9h56.55v29.27H292.45V178.09l55.31-75.15H294.93v-29Z"/><path class="cls-2" d="M474.2,70.7a59.92,59.92,0,0,1,24.68,5A57.31,57.31,0,0,1,518,89.32a63.58,63.58,0,0,1,12.45,20.32,68.76,68.76,0,0,1,4.48,24.91,54.78,54.78,0,0,1-1,10.65H440.34A35,35,0,0,0,453,164.91q9.56,7.38,23.58,7.38a40.18,40.18,0,0,0,17.06-3.75,28.25,28.25,0,0,0,12.21-10l23,13.55a58,58,0,0,1-21.77,19.11q-13.31,6.76-31,6.77a72.72,72.72,0,0,1-27-4.84,59.37,59.37,0,0,1-34.11-33.62,69.53,69.53,0,0,1,0-50.31,59.6,59.6,0,0,1,33.26-33.5A66.31,66.31,0,0,1,474.2,70.7Zm32.42,51q-1.69-11.85-10.65-18.39t-22.25-6.53a40.31,40.31,0,0,0-13.06,2.06A38.77,38.77,0,0,0,450,104.32a26.69,26.69,0,0,0-7.26,7.86,20.28,20.28,0,0,0-2.9,9.56Z"/><path class="cls-2" d="M596.56,196.45a105.59,105.59,0,0,1-17,1.48,42.6,42.6,0,0,1-12.05-1.6,21.29,21.29,0,0,1-9.22-5.41,25.08,25.08,0,0,1-5.91-10.45,56.72,56.72,0,0,1-2.09-16.72V24.32h30.5V161.78c0,3.77,1.18,6,3.56,6.76s6.43.7,12.17-.12Z"/><path class="cls-2" d="M709.86,73.92V93.76l-54.07,74.9h56.55v29.27H613.13V178.09l55.31-75.15H615.61v-29Z"/><path class="cls-2" d="M796.67,70.7a59.79,59.79,0,0,1,24.62,5,57,57,0,0,1,19.07,13.64,63.43,63.43,0,0,1,12.44,20.28,68.66,68.66,0,0,1,4.46,24.86,54.61,54.61,0,0,1-1,10.63H762.87a35,35,0,0,0,12.67,19.67q9.54,7.36,23.54,7.37a40,40,0,0,0,17-3.75,28.21,28.21,0,0,0,12.19-10l22.94,13.52a57.83,57.83,0,0,1-21.73,19.08q-13.28,6.75-30.9,6.76a72.45,72.45,0,0,1-26.92-4.83,59.26,59.26,0,0,1-34-33.56,69.29,69.29,0,0,1,0-50.22,59.44,59.44,0,0,1,33.19-33.43A66.29,66.29,0,0,1,796.67,70.7ZM829,121.64q-1.69-11.83-10.63-18.35t-22.21-6.52a40.4,40.4,0,0,0-13,2,38.71,38.71,0,0,0-10.63,5.44,26.69,26.69,0,0,0-7.24,7.84,20.31,20.31,0,0,0-2.9,9.54Z"/><path class="cls-2" d="M987.87,171.13a63.34,63.34,0,0,1-22.21,19.55,61.37,61.37,0,0,1-29.45,7.25,62.64,62.64,0,0,1-24.87-5,63.61,63.61,0,0,1-33.92-33.92,63.73,63.73,0,0,1,0-49.25,63.61,63.61,0,0,1,33.92-33.92,62.64,62.64,0,0,1,24.87-5,61.6,61.6,0,0,1,29.33,7.12,63.67,63.67,0,0,1,22.09,19.19l-24.87,16.66a39.61,39.61,0,0,0-12.07-9.77,30.94,30.94,0,0,0-14.48-3.51,32.86,32.86,0,0,0-13.16,2.66,33.87,33.87,0,0,0-18,18,33.4,33.4,0,0,0,7.24,36.93,35.16,35.16,0,0,0,10.74,7.13A32.85,32.85,0,0,0,936.21,168a31.26,31.26,0,0,0,15-3.62,37.11,37.11,0,0,0,11.58-9.66Z"/></g></g></svg>